<?xml version="1.0" standalone="no"?>
<!DOCTYPE svg PUBLIC "-//W3C//DTD SVG 20010904//EN"
 "http://www.w3.org/TR/2001/REC-SVG-20010904/DTD/svg10.dtd">
<svg version="1.0" xmlns="http://www.w3.org/2000/svg"
 width="4096.000000pt" height="795.000000pt" viewBox="0 0 4096.000000 795.000000"
 preserveAspectRatio="xMidYMid meet">

<g transform="translate(0.000000,795.000000) scale(0.100000,-0.100000)"
fill="#000000" stroke="none">
<path fill="#FFF" d="M733 7939 c-334 -33 -616 -281 -704 -618 -28 -106 -28 -286 0 -396
26 -102 96 -243 158 -320 104 -128 272 -238 433 -281 91 -25 310 -25 400 0
297 82 518 309 595 611 26 100 24 284 -4 390 -104 396 -474 655 -878 614z"/>
<path fill="#FFF" d="M9190 7809 c-394 -24 -788 -92 -1183 -206 -17 -5 -17 -127 -15 -2612
l3 -2606 23 -125 c65 -360 175 -661 348 -951 383 -641 1022 -1100 1739 -1248
249 -51 589 -68 830 -41 322 36 622 127 915 275 190 97 185 74 49 212 -299
304 -529 632 -695 991 -28 62 -54 115 -57 118 -3 3 -18 -1 -34 -9 -16 -9 -65
-27 -108 -41 -678 -217 -1387 217 -1509 924 -14 82 -16 217 -16 1072 l0 978
568 0 569 0 37 168 c86 395 146 898 146 1233 l0 109 -660 0 -660 0 0 885 0
885 -77 -1 c-43 -1 -139 -6 -213 -10z"/>
<path fill="#FFF" d="M19030 7813 c-356 -17 -805 -88 -1134 -178 -70 -19 -130 -35 -132
-35 -2 0 -4 -1710 -4 -3800 l0 -3800 745 0 745 0 0 3910 0 3910 -77 -2 c-43
-1 -107 -3 -143 -5z"/>
<path fill="#FFF" d="M21070 7809 c-359 -22 -740 -85 -1087 -180 l-113 -31 0 -2387 c0
-2620 -3 -2491 60 -2801 97 -471 299 -901 609 -1290 97 -122 329 -354 451
-451 456 -363 970 -579 1535 -644 179 -21 506 -21 679 0 679 80 1293 378 1771
859 405 407 682 908 810 1466 53 232 68 376 69 660 1 288 -8 387 -54 620 -244
1224 -1232 2180 -2459 2380 -405 65 -823 45 -1228 -60 -209 -54 -378 -118
-580 -220 l-173 -87 0 1088 0 1089 -77 -1 c-43 -1 -139 -6 -213 -10z m2025
-3284 c596 -96 1078 -537 1225 -1120 123 -488 1 -1003 -326 -1380 -216 -248
-501 -414 -838 -487 -148 -32 -436 -32 -586 1 -285 61 -526 186 -728 377 -442
416 -595 1040 -396 1615 176 510 627 895 1154 989 132 23 369 26 495 5z"/>
<path fill="#FFF" d="M1280 6039 c-356 -21 -711 -80 -1072 -175 l-138 -37 0 -2913 0 -2914
750 0 750 0 0 3025 0 3025 -77 -1 c-43 -1 -139 -6 -213 -10z"/>
<path fill="#FFF" d="M4630 6043 c-98 -6 -282 -33 -400 -59 -394 -87 -772 -271 -1095 -531
-137 -111 -342 -324 -452 -470 -275 -365 -448 -786 -520 -1263 -16 -105 -17
-267 -20 -1917 l-4 -1803 745 0 745 0 4 1758 c3 1611 4 1763 20 1827 44 181
97 312 174 427 167 250 402 419 692 495 137 36 364 43 507 15 511 -101 885
-511 943 -1036 7 -64 11 -657 11 -1791 l0 -1695 745 0 746 0 -4 1807 -3 1808
-22 137 c-69 423 -203 772 -427 1108 -281 422 -709 779 -1165 973 -385 163
-803 235 -1220 210z"/>
<path fill="#FFF" d="M14265 6044 c-560 -31 -1065 -197 -1520 -500 -622 -413 -1066 -1042
-1250 -1768 -111 -440 -125 -908 -39 -1336 180 -905 748 -1667 1559 -2096 319
-169 691 -281 1070 -324 136 -15 481 -12 630 5 1064 125 2004 842 2435 1859
43 101 123 335 135 392 6 32 6 32 -73 62 -389 148 -867 257 -1298 296 l-61 5
-33 -100 c-67 -204 -184 -400 -334 -556 -182 -191 -380 -318 -619 -398 -180
-60 -249 -70 -472 -70 -173 0 -214 3 -304 23 -168 38 -386 122 -365 142 5 4
767 594 1694 1310 927 716 1686 1304 1688 1305 12 10 -118 247 -222 405 -210
319 -492 606 -806 822 -393 270 -839 439 -1310 498 -145 18 -393 30 -505 24z
m455 -1537 c116 -28 229 -67 304 -104 41 -21 47 -27 35 -37 -8 -6 -491 -379
-1073 -829 -581 -451 -1060 -817 -1063 -814 -12 13 -33 200 -33 299 0 411 154
784 444 1073 221 220 465 354 752 414 143 30 142 30 344 26 155 -3 202 -7 290
-28z"/>
<path fill="#FFF" d="M28804 6040 c-332 -28 -642 -114 -949 -264 -777 -381 -1319 -1108
-1464 -1966 -38 -224 -41 -369 -41 -2116 l0 -1694 750 0 750 0 0 1744 c0 1906
-3 1817 58 1996 60 177 140 307 272 444 170 177 370 287 610 336 90 19 127 21
265 17 168 -5 263 -24 401 -79 l59 -24 81 165 c178 366 394 669 675 952 l115
116 -110 61 c-443 242 -968 353 -1472 312z"/>
<path fill="#FFF" d="M32520 6040 c-669 -56 -1299 -331 -1780 -778 -561 -520 -890 -1175
-970 -1932 -15 -136 -15 -476 0 -610 41 -379 133 -696 300 -1035 151 -307 329
-556 574 -801 495 -495 1104 -786 1806 -864 140 -16 493 -13 645 5 353 42 662
135 980 294 94 47 173 87 178 89 4 2 7 -89 7 -202 l0 -206 745 0 746 0 -4
1648 c-3 1488 -5 1658 -20 1765 -53 363 -142 652 -298 967 -150 301 -329 550
-569 790 -474 475 -1080 772 -1741 855 -153 19 -458 27 -599 15z m530 -1525
c828 -183 1345 -976 1174 -1802 -123 -597 -592 -1058 -1199 -1180 -136 -27
-435 -24 -568 5 -297 65 -531 190 -743 395 -224 216 -366 472 -436 784 -19 84
-22 128 -23 308 0 184 3 223 23 314 92 409 321 743 662 964 181 117 382 193
595 226 94 15 427 6 515 -14z"/>
<path fill="#FFF" d="M37830 6029 c-418 -54 -811 -252 -1096 -551 -270 -285 -445 -653
-494 -1041 -19 -145 -8 -455 19 -587 137 -655 596 -1180 1213 -1385 258 -86
362 -95 1050 -95 604 0 612 -1 713 -52 59 -31 133 -101 168 -161 68 -116 76
-279 20 -400 -38 -79 -113 -163 -181 -200 -107 -58 -65 -57 -1414 -57 l-1236
0 -16 -47 c-105 -321 -206 -1000 -206 -1385 l0 -68 1363 0 c749 0 1427 5 1507
10 265 17 471 73 705 190 77 39 183 101 235 138 107 76 276 234 360 337 295
360 437 809 409 1289 -22 371 -168 746 -405 1037 -82 101 -258 266 -364 342
-117 83 -340 195 -480 241 -251 83 -399 96 -1116 96 -574 0 -566 -1 -676 73
-72 48 -128 118 -160 197 -19 45 -23 75 -23 165 0 105 2 113 34 180 44 90 120
166 208 208 l68 32 1132 3 1132 2 20 68 c107 363 180 828 197 1260 l7 172
-1314 -1 c-723 -1 -1343 -5 -1379 -10z"/>
</g>
</svg>
